<svg xmlns="http://www.w3.org/2000/svg" version="1.1" xmlns:xlink="http://www.w3.org/1999/xlink" xmlns:svgjs="http://svgjs.dev/svgjs" width="515" height="514"><svg width="515" height="514" viewBox="0 0 515 514" fill="none" xmlns="http://www.w3.org/2000/svg">
<path d="M241.78 398.435C251.844 416.83 278.168 416.733 286.519 398.269L388.33 173.147C395.853 156.513 382.858 137.037 364.282 137.106L139.769 137.937C121.193 138.006 110.013 157.571 119.079 174.144L241.78 398.435Z" fill="url(#paint0_linear_146_702)"></path>
<path d="M107.927 313.547C95.894 330.719 107.645 354.276 127.897 353.581L374.825 345.113C393.071 344.488 404.773 324.209 396.481 307.586L296.265 106.68C287.973 90.0568 265.479 88.7022 254.638 104.173L107.927 313.547Z" fill="url(#paint1_linear_146_702)"></path>
<path d="M330.314 168.84V173.64C326.794 175.08 323.194 177.96 319.514 182.28C315.834 186.44 311.754 192.84 307.274 201.48L261.914 291.24H250.634L194.474 187.32C191.594 181.88 188.954 178.28 186.554 176.52C184.314 174.76 182.314 173.88 180.554 173.88V168.84C184.874 169.32 189.274 169.64 193.754 169.8C198.394 169.96 203.434 170.04 208.874 170.04C215.914 170.04 223.514 169.96 231.674 169.8C239.834 169.48 247.274 169.16 253.994 168.84V173.88C249.994 173.88 246.394 174.2 243.194 174.84C239.994 175.48 237.754 176.68 236.474 178.44C235.194 180.04 235.514 182.68 237.434 186.36L275.354 259.32L267.914 268.92L292.634 219.24C298.554 207.72 301.674 198.68 301.994 192.12C302.474 185.56 300.874 180.92 297.194 178.2C293.674 175.32 288.634 173.8 282.074 173.64V168.84C287.514 169 292.634 169.16 297.434 169.32C302.234 169.48 307.114 169.56 312.074 169.56C315.594 169.56 318.874 169.48 321.914 169.32C325.114 169.16 327.914 169 330.314 168.84ZM278.954 253.32V313.56C278.954 319.32 279.354 323.64 280.154 326.52C281.114 329.4 282.874 331.32 285.434 332.28C287.994 333.24 291.834 333.88 296.954 334.2V339C292.634 338.68 287.034 338.52 280.154 338.52C273.434 338.36 266.714 338.28 259.994 338.28C252.474 338.28 245.354 338.36 238.634 338.52C231.914 338.52 226.634 338.68 222.794 339V334.2C227.914 333.88 231.754 333.24 234.314 332.28C236.874 331.32 238.554 329.4 239.354 326.52C240.314 323.64 240.794 319.32 240.794 313.56V264.36L261.674 279.24L278.954 253.32Z" fill="white"></path>
<defs>
<linearGradient id="SvgjsLinearGradient1003" x1="89.9402" y1="443.781" x2="507.68" y2="311.575" gradientUnits="userSpaceOnUse">
<stop stop-color="#34073D"></stop>
<stop offset="1" stop-color="#EF745C"></stop>
</linearGradient>
<linearGradient id="SvgjsLinearGradient1002" x1="0" y1="197.514" x2="303.604" y2="513.44" gradientUnits="userSpaceOnUse">
<stop stop-color="#34073D"></stop>
<stop offset="1" stop-color="#EF745C"></stop>
</linearGradient>
</defs>
</svg><style>@media (prefers-color-scheme: light) { :root { filter: none; } }
@media (prefers-color-scheme: dark) { :root { filter: none; } }
</style></svg>