<svg xmlns="http://www.w3.org/2000/svg" version="1.1" xmlns:xlink="http://www.w3.org/1999/xlink" xmlns:svgjs="http://svgjs.dev/svgjs" width="16" height="16"><svg width="16" height="16" viewBox="0 0 16 16" fill="none" xmlns="http://www.w3.org/2000/svg">
<rect width="16" height="16" fill="#099773"></rect>
<path d="M5.292 13.432C5.228 13.432 5.164 13.424 5.1 13.408C5.036 13.4 4.972 13.396 4.908 13.396C4.892 13.396 4.86 13.38 4.812 13.348C4.772 13.316 4.744 13.3 4.728 13.3C4.592 13.3 4.456 13.288 4.32 13.264C4.312 13.264 4.304 13.252 4.296 13.228C4.288 13.212 4.276 13.204 4.26 13.204C4.252 13.204 4.248 13.204 4.248 13.204C4.248 13.212 4.244 13.216 4.236 13.216C4.228 13.216 4.204 13.2 4.164 13.168C4.132 13.144 4.108 13.128 4.092 13.12L4.08 13.096C4.04 13.08 4.016 13.06 4.008 13.036C4 13.02 3.988 13.012 3.972 13.012C3.964 13.012 3.96 13.012 3.96 13.012C3.96 13.02 3.952 13.024 3.936 13.024C3.92 13.024 3.912 13.012 3.912 12.988C3.88 12.972 3.828 12.94 3.756 12.892C3.684 12.852 3.64 12.812 3.624 12.772C3.584 12.764 3.56 12.748 3.552 12.724C3.544 12.708 3.528 12.684 3.504 12.652C3.496 12.636 3.488 12.628 3.48 12.628C3.472 12.628 3.464 12.624 3.456 12.616C3.432 12.584 3.408 12.552 3.384 12.52C3.36 12.496 3.332 12.468 3.3 12.436C3.3 12.42 3.292 12.404 3.276 12.388L3.228 12.364C3.228 12.348 3.224 12.328 3.216 12.304C3.208 12.28 3.196 12.268 3.18 12.268C3.172 12.212 3.156 12.168 3.132 12.136C3.108 12.112 3.088 12.076 3.072 12.028C3.064 12.012 3.06 11.984 3.06 11.944C3.068 11.912 3.06 11.896 3.036 11.896V11.872C3.036 11.84 3.02 11.764 2.988 11.644C2.948 11.532 2.924 11.436 2.916 11.356L2.892 11.332C2.86 11.26 2.844 11.16 2.844 11.032C2.844 10.992 2.844 10.956 2.844 10.924C2.844 10.892 2.848 10.86 2.856 10.828C2.856 10.788 2.832 10.724 2.784 10.636C2.736 10.556 2.704 10.5 2.688 10.468C2.68 10.38 2.66 10.3 2.628 10.228C2.596 10.156 2.584 10.076 2.592 9.988C2.592 9.964 2.596 9.944 2.604 9.928C2.612 9.904 2.616 9.88 2.616 9.856C2.632 9.88 2.656 9.96 2.688 10.096C2.72 10.24 2.76 10.356 2.808 10.444V10.504H2.844C2.86 10.48 2.88 10.432 2.904 10.36C2.928 10.296 2.94 10.252 2.94 10.228C2.94 10.212 2.936 10.192 2.928 10.168C2.92 10.152 2.916 10.132 2.916 10.108C2.916 10.092 2.92 10.076 2.928 10.06C2.936 10.052 2.944 10.044 2.952 10.036C2.952 10.02 2.952 10 2.952 9.976C2.952 9.952 2.956 9.928 2.964 9.904C2.964 9.864 2.968 9.836 2.976 9.82C2.984 9.796 2.996 9.776 3.012 9.76C3.036 9.736 3.052 9.716 3.06 9.7C3.076 9.66 3.092 9.62 3.108 9.58C3.124 9.54 3.136 9.504 3.144 9.472C3.16 9.448 3.176 9.428 3.192 9.412C3.216 9.396 3.232 9.372 3.24 9.34C3.256 9.3 3.276 9.264 3.3 9.232C3.332 9.192 3.36 9.152 3.384 9.112C3.4 9.096 3.408 9.076 3.408 9.052C3.416 9.028 3.424 9.012 3.432 9.004C3.44 8.988 3.452 8.98 3.468 8.98C3.484 8.972 3.496 8.964 3.504 8.956C3.52 8.94 3.536 8.92 3.552 8.896C3.568 8.872 3.584 8.852 3.6 8.836H3.612C3.636 8.836 3.66 8.82 3.684 8.788C3.708 8.756 3.732 8.736 3.756 8.728C3.788 8.704 3.816 8.688 3.84 8.68C3.872 8.672 3.904 8.664 3.936 8.656L3.96 8.668C3.96 8.684 3.956 8.7 3.948 8.716C3.94 8.732 3.936 8.748 3.936 8.764C3.88 8.764 3.844 8.78 3.828 8.812C3.812 8.844 3.796 8.86 3.78 8.86C3.772 8.86 3.768 8.86 3.768 8.86C3.776 8.852 3.772 8.848 3.756 8.848C3.748 8.848 3.736 8.864 3.72 8.896C3.704 8.92 3.692 8.94 3.684 8.956C3.676 8.964 3.668 8.968 3.66 8.968C3.652 8.968 3.64 8.976 3.624 8.992V9.004C3.624 9.012 3.624 9.024 3.624 9.04C3.632 9.048 3.636 9.06 3.636 9.076L3.624 9.172C3.576 9.22 3.532 9.272 3.492 9.328C3.452 9.384 3.412 9.44 3.372 9.496C3.356 9.528 3.348 9.56 3.348 9.592C3.324 9.6 3.312 9.616 3.312 9.64C3.312 9.656 3.308 9.672 3.3 9.688C3.3 9.704 3.292 9.72 3.276 9.736C3.268 9.752 3.26 9.768 3.252 9.784C3.244 9.808 3.236 9.836 3.228 9.868C3.228 9.9 3.22 9.928 3.204 9.952L3.168 9.988C3.16 9.996 3.148 10.052 3.132 10.156C3.116 10.26 3.108 10.32 3.108 10.336C3.116 10.344 3.128 10.348 3.144 10.348V10.468L3.132 10.48V10.576C3.124 10.592 3.12 10.616 3.12 10.648C3.104 10.648 3.096 10.66 3.096 10.684C3.096 10.7 3.1 10.72 3.108 10.744C3.116 10.768 3.12 10.788 3.12 10.804C3.112 10.812 3.108 10.82 3.108 10.828C3.108 10.836 3.104 10.848 3.096 10.864C3.096 10.872 3.1 10.88 3.108 10.888C3.116 10.896 3.124 10.908 3.132 10.924V10.996C3.148 11.028 3.168 11.06 3.192 11.092C3.216 11.124 3.24 11.156 3.264 11.188C3.28 11.204 3.3 11.216 3.324 11.224C3.348 11.24 3.368 11.256 3.384 11.272C3.568 11.472 3.728 11.604 3.864 11.668C4 11.732 4.18 11.796 4.404 11.86C4.492 11.884 4.576 11.908 4.656 11.932C4.736 11.964 4.82 11.98 4.908 11.98C4.916 11.98 4.92 11.984 4.92 11.992C4.92 12 4.924 12.004 4.932 12.004C4.972 12.004 5.012 12.008 5.052 12.016C5.092 12.024 5.132 12.032 5.172 12.04C5.188 12.04 5.196 12.032 5.196 12.016C5.204 12.008 5.212 12.004 5.22 12.004C5.236 12.004 5.252 12.008 5.268 12.016C5.284 12.024 5.3 12.028 5.316 12.028C5.348 12.028 5.376 12.028 5.4 12.028C5.432 12.036 5.464 12.04 5.496 12.04C5.6 12.04 5.7 12.028 5.796 12.004C5.876 11.988 5.956 11.968 6.036 11.944C6.116 11.928 6.196 11.916 6.276 11.908C6.412 11.892 6.552 11.852 6.696 11.788C6.84 11.732 6.98 11.676 7.116 11.62L7.188 11.572C7.228 11.572 7.304 11.544 7.416 11.488C7.536 11.432 7.656 11.368 7.776 11.296C7.896 11.232 7.976 11.184 8.016 11.152L8.1 11.032H8.112C8.136 11.032 8.164 11.02 8.196 10.996C8.228 10.98 8.248 10.956 8.256 10.924C8.304 10.884 8.324 10.856 8.316 10.84C8.316 10.824 8.324 10.8 8.34 10.768C8.356 10.752 8.376 10.728 8.4 10.696C8.432 10.664 8.444 10.632 8.436 10.6C8.452 10.592 8.468 10.58 8.484 10.564C8.5 10.548 8.512 10.536 8.52 10.528L8.58 10.504L8.616 10.432C8.632 10.416 8.648 10.4 8.664 10.384C8.68 10.376 8.696 10.364 8.712 10.348C8.72 10.3 8.74 10.276 8.772 10.276C8.788 10.228 8.812 10.184 8.844 10.144C8.876 10.112 8.904 10.076 8.928 10.036C8.944 10.012 8.956 9.988 8.964 9.964C8.972 9.932 8.984 9.908 9 9.892C9.024 9.86 9.048 9.836 9.072 9.82C9.104 9.796 9.128 9.768 9.144 9.736L9.396 9.292L9.444 9.172L9.528 9.064L9.54 9.052C9.676 8.916 9.804 8.76 9.924 8.584C10.044 8.4 10.156 8.22 10.26 8.044C10.364 7.86 10.456 7.712 10.536 7.6C10.56 7.568 10.58 7.516 10.596 7.444C10.612 7.412 10.632 7.388 10.656 7.372C10.68 7.356 10.7 7.332 10.716 7.3C10.724 7.276 10.728 7.252 10.728 7.228C10.728 7.204 10.732 7.184 10.74 7.168C10.748 7.16 10.756 7.16 10.764 7.168C10.772 7.168 10.78 7.164 10.788 7.156C10.82 7.132 10.836 7.108 10.836 7.084C10.836 7.06 10.84 7.032 10.848 7C10.856 6.96 10.876 6.928 10.908 6.904C10.94 6.88 10.956 6.852 10.956 6.82L11.184 6.58C11.216 6.54 11.236 6.492 11.244 6.436C11.252 6.38 11.272 6.332 11.304 6.292C11.36 6.212 11.396 6.168 11.412 6.16C11.428 6.144 11.444 6.128 11.46 6.112C11.484 6.088 11.52 6.036 11.568 5.956C11.584 5.94 11.608 5.908 11.64 5.86C11.68 5.804 11.704 5.772 11.712 5.764C11.728 5.748 11.732 5.744 11.724 5.752C11.724 5.76 11.732 5.76 11.748 5.752C11.756 5.744 11.768 5.712 11.784 5.656C11.808 5.592 11.828 5.532 11.844 5.476C11.86 5.412 11.86 5.38 11.844 5.38C11.812 5.388 11.784 5.392 11.76 5.392C11.744 5.392 11.728 5.392 11.712 5.392C11.688 5.392 11.664 5.392 11.64 5.392C11.624 5.384 11.6 5.38 11.568 5.38C11.544 5.38 11.512 5.384 11.472 5.392C11.44 5.392 11.396 5.396 11.34 5.404C11.324 5.404 11.308 5.408 11.292 5.416C11.284 5.424 11.272 5.432 11.256 5.44C11.248 5.44 11.236 5.436 11.22 5.428C11.212 5.42 11.2 5.412 11.184 5.404C11.152 5.396 11.12 5.396 11.088 5.404C11.056 5.412 11.02 5.416 10.98 5.416C10.964 5.416 10.948 5.416 10.932 5.416C10.916 5.408 10.9 5.4 10.884 5.392C10.86 5.4 10.824 5.404 10.776 5.404C10.72 5.404 10.668 5.4 10.62 5.392C10.58 5.376 10.552 5.368 10.536 5.368C10.528 5.376 10.524 5.38 10.524 5.38C10.532 5.38 10.528 5.384 10.512 5.392C10.504 5.392 10.496 5.388 10.488 5.38C10.488 5.372 10.48 5.368 10.464 5.368C10.368 5.368 10.264 5.344 10.152 5.296C10.144 5.296 10.144 5.3 10.152 5.308C10.16 5.308 10.156 5.308 10.14 5.308H10.116C10.068 5.308 10.032 5.296 10.008 5.272C9.976 5.232 9.932 5.212 9.876 5.212C9.828 5.204 9.804 5.184 9.804 5.152C9.804 5.136 9.812 5.128 9.828 5.128C9.844 5.128 9.868 5.14 9.9 5.164C9.932 5.18 9.952 5.188 9.96 5.188C9.976 5.188 9.98 5.184 9.972 5.176C9.972 5.168 9.98 5.16 9.996 5.152C10.036 5.152 10.084 5.164 10.14 5.188C10.204 5.204 10.284 5.208 10.38 5.2C10.396 5.2 10.4 5.208 10.392 5.224C10.392 5.232 10.4 5.232 10.416 5.224C10.424 5.224 10.432 5.224 10.44 5.224C10.448 5.216 10.456 5.212 10.464 5.212C10.472 5.212 10.48 5.212 10.488 5.212C10.496 5.204 10.5 5.2 10.5 5.2V5.236C10.556 5.228 10.608 5.228 10.656 5.236C10.712 5.244 10.768 5.244 10.824 5.236C10.84 5.228 10.856 5.216 10.872 5.2C10.888 5.184 10.908 5.172 10.932 5.164C10.948 5.164 10.956 5.168 10.956 5.176C10.964 5.184 10.972 5.188 10.98 5.188C10.996 5.188 11.004 5.184 11.004 5.176C11.004 5.168 11.008 5.164 11.016 5.164H11.04C11.056 5.164 11.072 5.168 11.088 5.176C11.112 5.184 11.132 5.188 11.148 5.188C11.156 5.18 11.16 5.164 11.16 5.14H11.184C11.224 5.14 11.252 5.152 11.268 5.176C11.292 5.192 11.312 5.196 11.328 5.188C11.344 5.188 11.348 5.18 11.34 5.164C11.34 5.148 11.392 5.136 11.496 5.128L11.52 5.092C11.56 5.124 11.58 5.132 11.58 5.116C11.58 5.1 11.588 5.092 11.604 5.092C11.62 5.084 11.624 5.088 11.616 5.104C11.616 5.12 11.62 5.128 11.628 5.128C11.644 5.12 11.66 5.128 11.676 5.152C11.692 5.168 11.704 5.172 11.712 5.164C11.704 5.14 11.708 5.128 11.724 5.128C11.74 5.128 11.748 5.132 11.748 5.14C11.748 5.148 11.756 5.152 11.772 5.152C11.788 5.144 11.796 5.136 11.796 5.128C11.804 5.12 11.812 5.112 11.82 5.104C11.836 5.104 11.856 5.108 11.88 5.116C11.912 5.124 11.936 5.124 11.952 5.116C11.992 5.116 12.016 5.112 12.024 5.104C12.04 5.096 12.044 5.088 12.036 5.08C12.036 5.072 12.04 5.064 12.048 5.056C12.064 5.048 12.072 5.052 12.072 5.068C12.08 5.076 12.092 5.076 12.108 5.068C12.124 5.068 12.148 5.06 12.18 5.044C12.244 4.98 12.312 4.928 12.384 4.888C12.456 4.84 12.484 4.784 12.468 4.72C12.46 4.704 12.468 4.688 12.492 4.672C12.524 4.648 12.544 4.632 12.552 4.624C12.56 4.608 12.576 4.6 12.6 4.6C12.632 4.592 12.652 4.584 12.66 4.576C12.676 4.56 12.7 4.528 12.732 4.48C12.764 4.432 12.784 4.404 12.792 4.396C12.808 4.396 12.824 4.392 12.84 4.384C12.864 4.368 12.88 4.36 12.888 4.36C12.904 4.352 12.916 4.332 12.924 4.3C12.932 4.268 12.952 4.248 12.984 4.24C13.016 4.232 13.036 4.228 13.044 4.228C13.052 4.22 13.056 4.216 13.056 4.216C13.056 4.216 13.052 4.216 13.044 4.216C13.044 4.208 13.044 4.2 13.044 4.192C13.044 4.176 13.068 4.148 13.116 4.108C13.132 4.068 13.184 4.056 13.272 4.072C13.304 4.088 13.328 4.104 13.344 4.12C13.352 4.128 13.336 4.16 13.296 4.216C13.256 4.272 13.228 4.3 13.212 4.3C13.204 4.308 13.192 4.312 13.176 4.312C13.168 4.304 13.156 4.304 13.14 4.312C13.124 4.32 13.108 4.34 13.092 4.372C13.076 4.396 13.056 4.412 13.032 4.42C13.016 4.428 12.992 4.436 12.96 4.444C12.936 4.452 12.924 4.464 12.924 4.48C12.924 4.488 12.916 4.5 12.9 4.516C12.892 4.524 12.884 4.524 12.876 4.516C12.868 4.508 12.86 4.516 12.852 4.54C12.852 4.564 12.844 4.584 12.828 4.6C12.796 4.624 12.764 4.66 12.732 4.708C12.7 4.756 12.684 4.804 12.684 4.852C12.676 4.86 12.7 4.884 12.756 4.924C12.812 4.956 12.844 4.972 12.852 4.972C12.868 4.972 12.876 4.964 12.876 4.948C12.884 4.932 12.896 4.924 12.912 4.924C12.928 4.924 12.94 4.928 12.948 4.936C12.964 4.936 12.976 4.936 12.984 4.936L13.548 4.888C13.564 4.888 13.58 4.88 13.596 4.864C13.612 4.848 13.628 4.84 13.644 4.84H13.656C13.688 4.84 13.716 4.844 13.74 4.852C13.772 4.86 13.796 4.848 13.812 4.816C13.868 4.808 13.936 4.788 14.016 4.756C14.096 4.724 14.136 4.712 14.136 4.72C14.192 4.72 14.22 4.752 14.22 4.816C14.22 4.872 14.188 4.936 14.124 5.008C14.068 5.08 13.984 5.124 13.872 5.14C13.816 5.148 13.756 5.164 13.692 5.188C13.636 5.212 13.576 5.228 13.512 5.236C13.488 5.236 13.46 5.232 13.428 5.224C13.396 5.216 13.364 5.212 13.332 5.212C13.324 5.212 13.316 5.22 13.308 5.236C13.3 5.252 13.288 5.26 13.272 5.26C13.264 5.26 13.248 5.256 13.224 5.248C13.208 5.24 13.184 5.236 13.152 5.236C13.12 5.236 13.084 5.248 13.044 5.272L13.02 5.248C13.012 5.264 13 5.276 12.984 5.284C12.896 5.292 12.8 5.296 12.696 5.296C12.592 5.296 12.492 5.304 12.396 5.32C12.38 5.32 12.368 5.304 12.36 5.272C12.352 5.232 12.344 5.22 12.336 5.236C12.312 5.204 12.272 5.228 12.216 5.308C12.16 5.38 12.108 5.46 12.06 5.548C12.012 5.628 11.984 5.672 11.976 5.68C11.952 5.696 11.936 5.72 11.928 5.752C11.928 5.784 11.924 5.808 11.916 5.824C11.908 5.848 11.884 5.876 11.844 5.908C11.812 5.94 11.788 5.968 11.772 5.992C11.764 6.016 11.748 6.04 11.724 6.064C11.7 6.08 11.68 6.1 11.664 6.124C11.656 6.14 11.652 6.164 11.652 6.196C11.652 6.22 11.64 6.24 11.616 6.256C11.616 6.256 11.608 6.256 11.592 6.256C11.576 6.256 11.556 6.284 11.532 6.34C11.516 6.396 11.5 6.432 11.484 6.448L11.472 6.46C11.44 6.46 11.416 6.476 11.4 6.508C11.392 6.54 11.38 6.564 11.364 6.58C11.356 6.588 11.352 6.588 11.352 6.58C11.352 6.572 11.344 6.572 11.328 6.58C11.32 6.588 11.308 6.62 11.292 6.676C11.276 6.732 11.26 6.772 11.244 6.796C11.236 6.804 11.224 6.812 11.208 6.82C11.192 6.828 11.18 6.84 11.172 6.856C11.124 6.928 11.08 7.004 11.04 7.084C11 7.164 10.96 7.24 10.92 7.312C10.904 7.352 10.876 7.392 10.836 7.432C10.804 7.464 10.772 7.5 10.74 7.54L10.716 7.66C10.7 7.692 10.676 7.728 10.644 7.768C10.612 7.8 10.592 7.836 10.584 7.876C10.584 7.908 10.548 7.976 10.476 8.08C10.412 8.184 10.344 8.288 10.272 8.392C10.2 8.488 10.156 8.556 10.14 8.596C10.132 8.604 10.112 8.624 10.08 8.656C10.056 8.68 10 8.76 9.912 8.896L9.348 9.712C9.34 9.744 9.328 9.776 9.312 9.808C9.304 9.84 9.292 9.872 9.276 9.904C9.244 9.976 9.208 10.044 9.168 10.108C9.128 10.172 9.088 10.232 9.048 10.288V10.336C9.072 10.336 9.104 10.324 9.144 10.3C9.184 10.284 9.208 10.26 9.216 10.228C9.336 10.148 9.448 10.048 9.552 9.928C9.656 9.808 9.764 9.704 9.876 9.616C9.916 9.592 9.936 9.56 9.936 9.52C10.016 9.48 10.056 9.468 10.056 9.484C10.064 9.492 10.056 9.516 10.032 9.556C10 9.588 9.972 9.624 9.948 9.664C9.924 9.696 9.896 9.728 9.864 9.76C9.856 9.768 9.832 9.788 9.792 9.82C9.76 9.852 9.744 9.876 9.744 9.892C9.728 9.908 9.688 9.948 9.624 10.012C9.568 10.076 9.512 10.136 9.456 10.192C9.4 10.248 9.368 10.276 9.36 10.276C9.352 10.276 9.348 10.272 9.348 10.264C9.348 10.256 9.344 10.252 9.336 10.252C9.328 10.252 9.296 10.28 9.24 10.336C9.192 10.4 9.16 10.44 9.144 10.456C9.128 10.464 9.112 10.476 9.096 10.492C9.08 10.508 9.064 10.516 9.048 10.516C9.032 10.54 9.012 10.556 8.988 10.564C8.972 10.58 8.956 10.6 8.94 10.624H8.904C8.848 10.68 8.772 10.752 8.676 10.84C8.588 10.936 8.536 11.028 8.52 11.116C8.48 11.132 8.436 11.176 8.388 11.248C8.34 11.328 8.288 11.388 8.232 11.428L8.148 11.524C8.14 11.532 8.128 11.552 8.112 11.584C8.104 11.616 8.092 11.64 8.076 11.656C8.06 11.68 8.04 11.7 8.016 11.716C7.992 11.74 7.968 11.764 7.944 11.788C7.944 11.804 7.936 11.828 7.92 11.86C7.912 11.868 7.9 11.876 7.884 11.884C7.868 11.892 7.852 11.9 7.836 11.908C7.804 11.94 7.764 11.996 7.716 12.076C7.676 12.156 7.624 12.216 7.56 12.256C7.552 12.264 7.54 12.268 7.524 12.268C7.484 12.268 7.452 12.288 7.428 12.328C7.412 12.376 7.392 12.416 7.368 12.448C7.312 12.512 7.224 12.58 7.104 12.652C6.992 12.732 6.904 12.804 6.84 12.868C6.808 12.868 6.768 12.88 6.72 12.904C6.68 12.936 6.66 12.952 6.66 12.952H6.588C6.58 12.952 6.556 12.968 6.516 13C6.476 13.032 6.448 13.052 6.432 13.06C6.416 13.068 6.396 13.072 6.372 13.072C6.356 13.08 6.34 13.096 6.324 13.12C6.292 13.128 6.26 13.132 6.228 13.132C6.204 13.132 6.18 13.14 6.156 13.156C6.148 13.164 6.136 13.172 6.12 13.18C6.112 13.196 6.1 13.212 6.084 13.228C6.068 13.236 6.028 13.252 5.964 13.276C5.9 13.308 5.86 13.324 5.844 13.324C5.836 13.324 5.828 13.32 5.82 13.312C5.82 13.312 5.816 13.312 5.808 13.312C5.8 13.312 5.788 13.32 5.772 13.336C5.756 13.36 5.74 13.372 5.724 13.372C5.708 13.372 5.688 13.364 5.664 13.348C5.64 13.34 5.616 13.336 5.592 13.336C5.584 13.336 5.568 13.348 5.544 13.372C5.52 13.396 5.5 13.408 5.484 13.408C5.476 13.408 5.464 13.404 5.448 13.396C5.44 13.396 5.432 13.396 5.424 13.396H5.412C5.388 13.396 5.364 13.4 5.34 13.408C5.324 13.424 5.308 13.432 5.292 13.432ZM8.736 9.976C8.728 9.96 8.724 9.944 8.724 9.928C8.732 9.904 8.736 9.888 8.736 9.88C8.736 9.848 8.728 9.816 8.712 9.784C8.712 9.768 8.716 9.752 8.724 9.736C8.732 9.712 8.732 9.692 8.724 9.676C8.724 9.668 8.72 9.66 8.712 9.652C8.704 9.644 8.704 9.636 8.712 9.628C8.712 9.628 8.72 9.628 8.736 9.628C8.744 9.62 8.748 9.608 8.748 9.592C8.74 9.568 8.74 9.548 8.748 9.532C8.756 9.508 8.76 9.488 8.76 9.472C8.768 9.424 8.772 9.372 8.772 9.316V9.304C8.772 9.28 8.764 9.256 8.748 9.232C8.74 9.2 8.736 9.172 8.736 9.148C8.736 9.108 8.74 9.068 8.748 9.028C8.764 8.98 8.776 8.932 8.784 8.884C8.792 8.852 8.792 8.828 8.784 8.812C8.784 8.796 8.788 8.784 8.796 8.776V8.764C8.796 8.748 8.792 8.732 8.784 8.716C8.776 8.7 8.772 8.684 8.772 8.668C8.772 8.636 8.776 8.616 8.784 8.608C8.8 8.592 8.8 8.564 8.784 8.524C8.768 8.492 8.768 8.464 8.784 8.44C8.784 8.432 8.78 8.424 8.772 8.416C8.772 8.408 8.772 8.396 8.772 8.38C8.772 8.356 8.776 8.336 8.784 8.32C8.8 8.304 8.808 8.284 8.808 8.26C8.808 8.244 8.804 8.228 8.796 8.212C8.788 8.196 8.78 8.184 8.772 8.176C8.772 8.16 8.772 8.144 8.772 8.128C8.78 8.112 8.788 8.096 8.796 8.08C8.796 8.064 8.788 8.044 8.772 8.02C8.764 7.996 8.76 7.976 8.76 7.96C8.752 7.728 8.74 7.5 8.724 7.276C8.716 7.044 8.688 6.812 8.64 6.58L8.58 6.46C8.5 6.404 8.472 6.372 8.496 6.364C8.52 6.348 8.52 6.308 8.496 6.244C8.48 6.196 8.472 6.16 8.472 6.136C8.472 6.112 8.468 6.084 8.46 6.052C8.452 6.028 8.44 6.004 8.424 5.98C8.408 5.948 8.404 5.924 8.412 5.908C8.42 5.884 8.4 5.828 8.352 5.74C8.304 5.644 8.284 5.592 8.292 5.584C8.308 5.568 8.312 5.556 8.304 5.548L8.28 5.524C8.28 5.516 8.28 5.508 8.28 5.5C8.288 5.492 8.288 5.484 8.28 5.476C8.272 5.46 8.268 5.448 8.268 5.44C8.276 5.432 8.28 5.424 8.28 5.416C8.272 5.392 8.256 5.372 8.232 5.356C8.208 5.34 8.188 5.328 8.172 5.32L8.124 5.224C8.116 5.208 8.108 5.196 8.1 5.188C8.1 5.172 8.096 5.156 8.088 5.14C8.08 5.124 8.056 5.1 8.016 5.068C7.976 5.028 7.948 4.996 7.932 4.972C7.916 4.948 7.888 4.912 7.848 4.864C7.816 4.808 7.8 4.776 7.8 4.768C7.8 4.76 7.792 4.756 7.776 4.756C7.768 4.748 7.76 4.74 7.752 4.732C7.672 4.668 7.616 4.624 7.584 4.6C7.552 4.568 7.492 4.524 7.404 4.468L7.212 4.396C7.188 4.38 7.156 4.372 7.116 4.372C7.084 4.364 7.056 4.356 7.032 4.348C7 4.332 6.952 4.324 6.888 4.324C6.832 4.316 6.776 4.312 6.72 4.312C6.64 4.312 6.592 4.316 6.576 4.324L6.492 4.312C6.34 4.288 6.176 4.308 6 4.372C5.824 4.428 5.648 4.5 5.472 4.588C5.256 4.692 5.056 4.808 4.872 4.936C4.688 5.056 4.548 5.168 4.452 5.272C4.444 5.28 4.436 5.296 4.428 5.32C4.428 5.344 4.42 5.356 4.404 5.356C4.348 5.388 4.312 5.404 4.296 5.404C4.28 5.396 4.264 5.42 4.248 5.476C4.24 5.524 4.22 5.548 4.188 5.548C4.156 5.54 4.132 5.56 4.116 5.608C4.116 5.624 4.12 5.632 4.128 5.632C4.048 5.656 4 5.688 3.984 5.728C3.984 5.736 3.992 5.744 4.008 5.752C4.024 5.76 4.024 5.764 4.008 5.764C3.984 5.772 3.952 5.796 3.912 5.836C3.872 5.876 3.864 5.912 3.888 5.944C3.896 5.952 3.888 5.964 3.864 5.98C3.856 5.988 3.852 5.988 3.852 5.98C3.852 5.972 3.848 5.972 3.84 5.98C3.832 5.988 3.824 5.996 3.816 6.004C3.816 6.012 3.812 6.02 3.804 6.028H3.792C3.76 6.028 3.74 6.048 3.732 6.088C3.732 6.12 3.736 6.152 3.744 6.184L3.696 6.172C3.696 6.188 3.696 6.196 3.696 6.196C3.68 6.204 3.68 6.22 3.696 6.244C3.712 6.26 3.724 6.272 3.732 6.28C3.772 6.312 3.804 6.332 3.828 6.34C3.86 6.348 3.876 6.36 3.876 6.376C3.868 6.408 3.848 6.436 3.816 6.46C3.792 6.476 3.772 6.5 3.756 6.532C3.66 6.732 3.612 6.932 3.612 7.132C3.612 7.164 3.612 7.196 3.612 7.228C3.612 7.26 3.616 7.296 3.624 7.336C3.624 7.344 3.632 7.352 3.648 7.36C3.672 7.368 3.688 7.376 3.696 7.384C3.72 7.384 3.732 7.384 3.732 7.384C3.78 7.392 3.808 7.392 3.816 7.384C3.832 7.376 3.844 7.368 3.852 7.36C3.86 7.352 3.868 7.352 3.876 7.36C3.884 7.36 3.892 7.36 3.9 7.36C3.924 7.352 3.948 7.34 3.972 7.324C4.004 7.308 4.028 7.3 4.044 7.3C4.068 7.292 4.088 7.284 4.104 7.276C4.128 7.26 4.152 7.248 4.176 7.24C4.176 7.24 4.188 7.252 4.212 7.276H4.188C4.172 7.284 4.156 7.3 4.14 7.324C4.132 7.34 4.12 7.356 4.104 7.372C4.088 7.372 4.076 7.376 4.068 7.384C4.076 7.384 4.072 7.392 4.056 7.408C4.024 7.408 4.008 7.416 4.008 7.432C4.008 7.44 3.992 7.452 3.96 7.468C3.952 7.476 3.94 7.48 3.924 7.48C3.916 7.472 3.908 7.472 3.9 7.48C3.868 7.496 3.844 7.512 3.828 7.528C3.812 7.536 3.776 7.548 3.72 7.564C3.68 7.572 3.616 7.576 3.528 7.576H3.504C3.464 7.576 3.42 7.56 3.372 7.528C3.364 7.52 3.352 7.512 3.336 7.504C3.32 7.496 3.304 7.488 3.288 7.48C3.28 7.472 3.268 7.468 3.252 7.468C3.244 7.468 3.236 7.464 3.228 7.456C3.22 7.448 3.212 7.44 3.204 7.432C3.204 7.416 3.196 7.404 3.18 7.396V7.384C3.132 7.328 3.104 7.276 3.096 7.228C3.088 7.204 3.088 7.18 3.096 7.156C3.104 7.132 3.104 7.104 3.096 7.072C3.088 7.056 3.08 7.028 3.072 6.988C3.064 6.94 3.064 6.912 3.072 6.904L3.108 6.88L3.096 6.796C3.096 6.78 3.1 6.768 3.108 6.76C3.116 6.752 3.12 6.744 3.12 6.736C3.128 6.712 3.132 6.672 3.132 6.616C3.14 6.608 3.14 6.596 3.132 6.58C3.124 6.564 3.124 6.552 3.132 6.544C3.14 6.544 3.144 6.544 3.144 6.544C3.152 6.536 3.16 6.532 3.168 6.532L3.36 6.064H3.372C3.396 6.064 3.412 6.048 3.42 6.016C3.428 5.976 3.436 5.952 3.444 5.944C3.46 5.928 3.468 5.924 3.468 5.932C3.484 5.924 3.492 5.916 3.492 5.908C3.492 5.892 3.496 5.88 3.504 5.872C3.528 5.84 3.568 5.792 3.624 5.728C3.688 5.664 3.728 5.616 3.744 5.584C3.752 5.576 3.764 5.564 3.78 5.548C3.804 5.532 3.816 5.516 3.816 5.5C3.816 5.484 3.824 5.476 3.84 5.476C3.856 5.476 3.868 5.472 3.876 5.464C3.876 5.448 3.876 5.44 3.876 5.44L3.9 5.428C3.916 5.428 3.924 5.42 3.924 5.404C3.932 5.388 3.94 5.376 3.948 5.368C3.956 5.36 3.96 5.36 3.96 5.368C3.968 5.368 3.976 5.364 3.984 5.356C3.984 5.356 3.98 5.356 3.972 5.356C3.972 5.348 3.976 5.34 3.984 5.332C4 5.316 4.016 5.304 4.032 5.296C4.056 5.28 4.076 5.264 4.092 5.248C4.124 5.224 4.148 5.2 4.164 5.176C4.188 5.144 4.216 5.12 4.248 5.104L4.356 5.032C4.356 5.016 4.364 5.008 4.38 5.008C4.396 5.008 4.408 5.004 4.416 4.996C4.416 4.964 4.432 4.944 4.464 4.936C4.504 4.928 4.532 4.912 4.548 4.888C4.564 4.856 4.588 4.836 4.62 4.828C4.66 4.812 4.692 4.796 4.716 4.78C4.708 4.78 4.712 4.772 4.728 4.756H4.764C4.764 4.756 4.76 4.756 4.752 4.756C4.752 4.748 4.752 4.74 4.752 4.732C4.776 4.716 4.82 4.7 4.884 4.684C4.9 4.676 4.908 4.668 4.908 4.66C4.916 4.644 4.924 4.632 4.932 4.624L5.016 4.6C5.04 4.592 5.056 4.58 5.064 4.564C5.08 4.548 5.1 4.536 5.124 4.528C5.132 4.52 5.144 4.516 5.16 4.516C5.176 4.516 5.188 4.512 5.196 4.504C5.204 4.496 5.216 4.48 5.232 4.456C5.248 4.432 5.268 4.42 5.292 4.42H5.316C5.356 4.42 5.376 4.412 5.376 4.396C5.384 4.38 5.416 4.376 5.472 4.384C5.488 4.384 5.496 4.38 5.496 4.372C5.496 4.356 5.5 4.344 5.508 4.336L5.556 4.348L5.568 4.324H5.58C5.644 4.324 5.684 4.312 5.7 4.288C5.724 4.264 5.76 4.252 5.808 4.252C5.848 4.236 5.876 4.236 5.892 4.252C5.908 4.26 5.932 4.256 5.964 4.24C5.996 4.224 6.028 4.22 6.06 4.228C6.092 4.236 6.116 4.236 6.132 4.228C6.14 4.228 6.144 4.224 6.144 4.216C6.144 4.208 6.148 4.2 6.156 4.192C6.164 4.184 6.196 4.18 6.252 4.18C6.308 4.172 6.344 4.168 6.36 4.168L6.384 4.192C6.416 4.184 6.428 4.18 6.42 4.18C6.412 4.172 6.412 4.164 6.42 4.156C6.436 4.156 6.452 4.156 6.468 4.156C6.484 4.148 6.5 4.144 6.516 4.144C6.54 4.152 6.556 4.16 6.564 4.168C6.572 4.176 6.592 4.176 6.624 4.168L6.648 4.18C6.664 4.172 6.688 4.168 6.72 4.168C6.736 4.168 6.752 4.172 6.768 4.18C6.784 4.188 6.8 4.196 6.816 4.204H6.852L6.9 4.216C6.924 4.224 6.952 4.22 6.984 4.204C6.992 4.196 7.004 4.192 7.02 4.192C7.036 4.192 7.056 4.196 7.08 4.204C7.104 4.212 7.124 4.216 7.14 4.216C7.148 4.216 7.156 4.22 7.164 4.228C7.172 4.236 7.18 4.236 7.188 4.228H7.212C7.236 4.228 7.272 4.232 7.32 4.24C7.376 4.248 7.424 4.252 7.464 4.252H7.476C7.492 4.252 7.508 4.26 7.524 4.276C7.548 4.284 7.576 4.288 7.608 4.288H7.62C7.644 4.288 7.676 4.3 7.716 4.324C7.764 4.34 7.792 4.356 7.8 4.372L7.896 4.444L7.908 4.468C7.916 4.468 7.924 4.468 7.932 4.468C7.94 4.46 7.948 4.46 7.956 4.468C8.004 4.484 8.052 4.508 8.1 4.54C8.156 4.564 8.2 4.592 8.232 4.624C8.304 4.704 8.368 4.768 8.424 4.816C8.48 4.856 8.536 4.916 8.592 4.996L8.652 5.128C8.66 5.136 8.668 5.144 8.676 5.152C8.684 5.152 8.692 5.156 8.7 5.164C8.7 5.188 8.704 5.204 8.712 5.212L8.832 5.38C8.872 5.436 8.88 5.464 8.856 5.464C8.84 5.464 8.836 5.488 8.844 5.536C8.844 5.552 8.86 5.592 8.892 5.656C8.932 5.72 8.952 5.76 8.952 5.776C8.96 5.784 8.96 5.796 8.952 5.812C8.944 5.82 8.944 5.832 8.952 5.848C8.952 5.856 8.956 5.864 8.964 5.872C8.972 5.88 8.976 5.888 8.976 5.896L9 6.004L9.036 6.124C9.036 6.148 9.036 6.16 9.036 6.16V6.172C9.036 6.188 9.04 6.204 9.048 6.22C9.064 6.236 9.068 6.252 9.06 6.268C9.052 6.276 9.052 6.292 9.06 6.316C9.076 6.332 9.088 6.348 9.096 6.364C9.104 6.372 9.1 6.38 9.084 6.388C9.076 6.396 9.076 6.408 9.084 6.424C9.1 6.44 9.112 6.5 9.12 6.604C9.136 6.7 9.144 6.748 9.144 6.748C9.16 6.788 9.176 6.832 9.192 6.88C9.208 6.92 9.22 6.96 9.228 7C9.228 7.032 9.224 7.048 9.216 7.048C9.216 7.048 9.22 7.06 9.228 7.084C9.236 7.1 9.236 7.12 9.228 7.144C9.228 7.16 9.232 7.184 9.24 7.216C9.248 7.24 9.244 7.276 9.228 7.324C9.228 7.34 9.232 7.368 9.24 7.408C9.256 7.44 9.26 7.46 9.252 7.468C9.236 7.492 9.232 7.508 9.24 7.516C9.256 7.524 9.26 7.536 9.252 7.552C9.252 7.576 9.248 7.616 9.24 7.672C9.232 7.72 9.232 7.752 9.24 7.768C9.248 7.776 9.248 7.784 9.24 7.792C9.232 7.792 9.228 7.8 9.228 7.816C9.228 7.816 9.228 7.82 9.228 7.828C9.236 7.828 9.24 7.832 9.24 7.84C9.232 7.856 9.22 7.864 9.204 7.864C9.188 7.864 9.172 7.872 9.156 7.888C9.148 7.912 9.148 7.936 9.156 7.96C9.164 7.976 9.16 7.992 9.144 8.008C9.136 8.016 9.12 8.02 9.096 8.02C9.072 8.02 9.052 8.016 9.036 8.008C9.028 8 9.028 7.996 9.036 7.996C9.044 7.988 9.044 7.98 9.036 7.972C9.036 7.964 9.032 7.96 9.024 7.96C9.016 7.96 9.008 7.956 9 7.948C8.976 7.932 8.964 7.94 8.964 7.972C8.972 8.004 8.972 8.024 8.964 8.032C8.94 8.032 8.932 8.04 8.94 8.056C8.972 8.104 8.98 8.14 8.964 8.164V8.2C8.948 8.232 8.948 8.272 8.964 8.32C8.972 8.344 8.976 8.376 8.976 8.416C8.976 8.456 8.968 8.492 8.952 8.524C8.936 8.548 8.94 8.58 8.964 8.62C8.972 8.636 8.968 8.652 8.952 8.668C8.944 8.676 8.94 8.688 8.94 8.704C8.94 8.728 8.94 8.744 8.94 8.752C8.948 8.76 8.952 8.772 8.952 8.788L8.964 8.8C8.956 8.84 8.952 8.896 8.952 8.968C8.96 9.032 8.948 9.088 8.916 9.136C8.916 9.168 8.92 9.192 8.928 9.208L8.916 9.22C8.916 9.252 8.908 9.284 8.892 9.316L8.904 9.34C8.896 9.34 8.892 9.348 8.892 9.364C8.892 9.38 8.9 9.4 8.916 9.424C8.932 9.448 8.932 9.468 8.916 9.484C8.908 9.492 8.904 9.508 8.904 9.532C8.904 9.564 8.908 9.6 8.916 9.64C8.932 9.672 8.92 9.696 8.88 9.712L8.856 9.724C8.848 9.724 8.848 9.748 8.856 9.796C8.872 9.844 8.876 9.868 8.868 9.868C8.804 9.884 8.772 9.916 8.772 9.964L8.736 9.976ZM5.016 13.084C5.112 13.084 5.22 13.052 5.34 12.988C5.468 12.932 5.56 12.904 5.616 12.904C5.624 12.904 5.628 12.904 5.628 12.904C5.636 12.912 5.644 12.916 5.652 12.916C5.676 12.916 5.704 12.892 5.736 12.844H5.82C5.892 12.764 5.948 12.732 5.988 12.748C6.028 12.772 6.076 12.756 6.132 12.7C6.164 12.684 6.188 12.676 6.204 12.676C6.22 12.636 6.24 12.612 6.264 12.604C6.296 12.596 6.32 12.588 6.336 12.58C6.36 12.564 6.372 12.544 6.372 12.52C6.38 12.496 6.4 12.484 6.432 12.484C6.448 12.484 6.46 12.488 6.468 12.496C6.476 12.512 6.484 12.52 6.492 12.52C6.54 12.52 6.588 12.488 6.636 12.424C6.692 12.36 6.724 12.328 6.732 12.328C6.748 12.328 6.76 12.328 6.768 12.328C6.784 12.336 6.796 12.34 6.804 12.34L6.852 12.256C6.868 12.24 6.908 12.22 6.972 12.196C7.044 12.18 7.088 12.172 7.104 12.172L7.128 12.052L7.236 11.932C7.284 11.932 7.332 11.912 7.38 11.872C7.428 11.832 7.468 11.788 7.5 11.74C7.524 11.7 7.56 11.664 7.608 11.632C7.656 11.6 7.688 11.56 7.704 11.512C7.696 11.504 7.668 11.5 7.62 11.5C7.54 11.532 7.456 11.58 7.368 11.644C7.36 11.652 7.348 11.664 7.332 11.68C7.316 11.704 7.3 11.72 7.284 11.728C7.276 11.736 7.264 11.736 7.248 11.728C7.24 11.728 7.228 11.728 7.212 11.728C7.196 11.768 7.176 11.788 7.152 11.788C7.144 11.788 7.132 11.784 7.116 11.776C7.108 11.768 7.096 11.764 7.08 11.764L7.068 11.8C7.052 11.8 7.04 11.808 7.032 11.824C7.024 11.84 7.004 11.848 6.972 11.848C6.94 11.848 6.92 11.84 6.912 11.824C6.912 11.816 6.904 11.812 6.888 11.812C6.872 11.812 6.852 11.816 6.828 11.824C6.812 11.832 6.796 11.836 6.78 11.836C6.732 11.9 6.668 11.948 6.588 11.98C6.508 12.02 6.436 12.04 6.372 12.04C6.364 12.04 6.36 12.036 6.36 12.028C6.36 12.028 6.356 12.028 6.348 12.028C6.332 12.028 6.316 12.032 6.3 12.04C6.284 12.048 6.268 12.056 6.252 12.064L6.228 12.1C6.22 12.1 6.208 12.104 6.192 12.112C6.176 12.12 6.16 12.124 6.144 12.124C6.136 12.124 6.132 12.12 6.132 12.112C6.132 12.112 6.128 12.112 6.12 12.112C6.08 12.112 6.036 12.124 5.988 12.148C5.94 12.18 5.896 12.196 5.856 12.196C5.848 12.196 5.844 12.192 5.844 12.184C5.844 12.184 5.836 12.184 5.82 12.184C5.812 12.184 5.796 12.192 5.772 12.208C5.756 12.224 5.74 12.232 5.724 12.232C5.708 12.232 5.692 12.22 5.676 12.196C5.668 12.172 5.656 12.16 5.64 12.16C5.632 12.16 5.62 12.172 5.604 12.196C5.588 12.228 5.572 12.244 5.556 12.244C5.548 12.244 5.536 12.24 5.52 12.232C5.512 12.232 5.5 12.232 5.484 12.232H5.424C5.416 12.256 5.4 12.268 5.376 12.268C5.368 12.268 5.36 12.264 5.352 12.256C5.352 12.248 5.348 12.244 5.34 12.244C5.316 12.244 5.288 12.252 5.256 12.268C5.232 12.292 5.212 12.304 5.196 12.304H5.148C5.132 12.272 5.12 12.256 5.112 12.256C5.104 12.256 5.1 12.26 5.1 12.268C5.1 12.276 5.096 12.28 5.088 12.28C5.064 12.28 5.036 12.28 5.004 12.28C4.98 12.288 4.956 12.292 4.932 12.292C4.852 12.292 4.772 12.268 4.692 12.22C4.62 12.172 4.552 12.148 4.488 12.148C4.472 12.148 4.46 12.152 4.452 12.16C4.452 12.176 4.444 12.184 4.428 12.184C4.42 12.184 4.412 12.18 4.404 12.172C4.396 12.164 4.384 12.16 4.368 12.16C4.36 12.16 4.348 12.168 4.332 12.184L4.296 12.136C4.272 12.128 4.244 12.12 4.212 12.112C4.188 12.112 4.164 12.108 4.14 12.1C4.124 12.052 4.104 12.032 4.08 12.04C4.072 12 4.036 11.956 3.972 11.908C3.908 11.868 3.856 11.84 3.816 11.824C3.808 11.816 3.784 11.8 3.744 11.776C3.712 11.752 3.696 11.748 3.696 11.764C3.688 11.764 3.684 11.764 3.684 11.764C3.684 11.772 3.684 11.776 3.684 11.776C3.644 11.768 3.584 11.716 3.504 11.62C3.432 11.532 3.376 11.488 3.336 11.488C3.328 11.464 3.312 11.44 3.288 11.416C3.272 11.392 3.26 11.368 3.252 11.344H3.216C3.216 11.368 3.212 11.388 3.204 11.404C3.196 11.428 3.192 11.448 3.192 11.464C3.184 11.48 3.192 11.52 3.216 11.584C3.248 11.648 3.264 11.7 3.264 11.74C3.28 11.764 3.292 11.796 3.3 11.836C3.316 11.876 3.336 11.9 3.36 11.908C3.376 11.956 3.396 12.004 3.42 12.052C3.444 12.1 3.468 12.144 3.492 12.184V12.268C3.508 12.284 3.524 12.3 3.54 12.316C3.564 12.332 3.576 12.356 3.576 12.388C3.592 12.412 3.608 12.436 3.624 12.46C3.648 12.484 3.664 12.512 3.672 12.544C3.696 12.544 3.712 12.548 3.72 12.556C3.736 12.588 3.776 12.64 3.84 12.712C3.904 12.784 3.952 12.82 3.984 12.82C3.992 12.82 3.996 12.816 3.996 12.808C3.996 12.808 4 12.808 4.008 12.808C4.024 12.816 4.056 12.844 4.104 12.892C4.16 12.948 4.196 12.976 4.212 12.976C4.22 12.976 4.224 12.972 4.224 12.964C4.232 12.964 4.24 12.964 4.248 12.964C4.352 12.964 4.452 12.972 4.548 12.988C4.644 13.012 4.744 13.024 4.848 13.024C4.856 13.024 4.876 13.032 4.908 13.048C4.94 13.072 4.976 13.084 5.016 13.084Z" fill="white"></path>
</svg><style>@media (prefers-color-scheme: light) { :root { filter: none; } }
@media (prefers-color-scheme: dark) { :root { filter: none; } }
</style></svg>